<?xml version="1.0" encoding="utf-8"?>
<!-- Generator: Adobe Illustrator 17.0.0, SVG Export Plug-In . SVG Version: 6.00 Build 0)  -->
<!DOCTYPE svg PUBLIC "-//W3C//DTD SVG 1.1//EN" "http://www.w3.org/Graphics/SVG/1.1/DTD/svg11.dtd">
<svg version="1.1" id="图层_1" xmlns="http://www.w3.org/2000/svg" xmlns:xlink="http://www.w3.org/1999/xlink" x="0px" y="0px"
	 width="105.524px" height="18.347px" viewBox="0 0 105.524 18.347" enable-background="new 0 0 105.524 18.347"
	 xml:space="preserve">
<g>
	<path fill="#FFFFFF" d="M8.519,0.566L4.428,16.07h13.063l-1.273,2.229l-15.629-0.01l4.08-15.407L0,2.872V0.566H8.519z
		 M17.973,0.962l-6.049,5.731l-4.737,0.01l6.618-5.74h4.168V0.962z M17.549,13.899h-4.525L7.979,8.593h4.525L17.549,13.899z"/>
	<path fill="#FFFFFF" d="M19.7,0.711h17.732l-1.177,2.422H19.7V0.711z M33.487,15.81l-1.341-5.441h3.184l2.045,7.979h-3.261
		l-0.405-1.65l-0.502,1.515l-13.381-0.01V16.07l3.213-6.888H19.7V6.77h17.665l-1.138,2.412h-9.86l-2.962,6.628
		C23.405,15.81,33.487,15.81,33.487,15.81z"/>
</g>
<g>
	<path fill="#EFEFEF" d="M43.156,7.602V0.728h3.822v0.761h-2.292V3.78h1.531v0.77h-1.531v2.292h2.292v0.761L43.156,7.602
		L43.156,7.602z"/>
	<path fill="#EFEFEF" d="M48.499,7.602V0.728h3.062c0.415,0,0.772,0.151,1.072,0.454c0.299,0.302,0.449,0.662,0.449,1.077V2.67
		c0,0.342-0.116,0.671-0.349,0.985C52.501,3.97,52.11,4.127,51.56,4.127h0.761c0.208,0,0.386,0.075,0.536,0.225
		c0.149,0.149,0.225,0.332,0.225,0.545v2.704H51.56V5.31c0-0.208-0.075-0.386-0.225-0.536c-0.15-0.149-0.332-0.225-0.545-0.225
		h-0.76v3.052L48.499,7.602L48.499,7.602z M50.03,3.779h0.761c0.214,0,0.396-0.075,0.545-0.224c0.149-0.15,0.225-0.329,0.225-0.537
		v-0.76c0-0.213-0.075-0.396-0.225-0.545c-0.15-0.15-0.332-0.225-0.545-0.225H50.03V3.779z"/>
	<path fill="#EFEFEF" d="M54.613,7.602V0.728h3.062c0.415,0,0.772,0.151,1.072,0.454c0.299,0.302,0.449,0.662,0.449,1.077V3.02
		c0,0.416-0.15,0.775-0.449,1.077c-0.3,0.303-0.657,0.454-1.072,0.454h-1.531v3.052L54.613,7.602L54.613,7.602z M56.143,3.779h0.761
		c0.214,0,0.396-0.075,0.545-0.224c0.149-0.15,0.225-0.329,0.225-0.537v-0.76c0-0.213-0.075-0.396-0.225-0.545
		c-0.15-0.15-0.332-0.225-0.545-0.225h-0.761V3.779z"/>
</g>
<g enable-background="new    ">
	<path fill="#F7F8F8" d="M46.084,14.676c-0.061-0.041-0.143-0.102-0.244-0.184c-0.508-0.406-0.904-0.701-1.189-0.884
		c-0.243,0.528-0.833,1.017-1.769,1.464c-0.061-0.122-0.143-0.244-0.243-0.366c0.976-0.366,1.555-0.854,1.737-1.464H42.73v-0.366
		h1.738c0.062-0.264,0.092-0.579,0.092-0.945h-1.007c-0.143,0.244-0.335,0.468-0.579,0.671c-0.061-0.061-0.152-0.142-0.274-0.243
		c0.508-0.468,0.864-0.977,1.067-1.525l0.335,0.092c-0.041,0.102-0.102,0.233-0.183,0.396c-0.061,0.122-0.102,0.213-0.122,0.274
		h2.348v0.335h-1.188c0,0.366-0.021,0.682-0.062,0.945h1.494v0.366h-1.585v0.03c-0.021,0-0.031,0.011-0.031,0.03
		c0.062,0.041,0.152,0.103,0.274,0.184c0.366,0.224,0.793,0.519,1.281,0.884L46.084,14.676z M43.859,14.951h4.939v3.232h-0.396
		v-0.336h-4.147v0.336h-0.396V14.951z M44.254,15.316v0.915h4.147v-0.915H44.254z M44.254,16.597v0.884h4.147v-0.884H44.254z
		 M46.816,11.505h2.714v2.744h-2.714V11.505z M47.212,11.871v2.013h1.922v-2.013H47.212z"/>
	<path fill="#F7F8F8" d="M51.42,16.628l0.336,0.214c-0.204,0.305-0.509,0.69-0.915,1.158c-0.061-0.061-0.173-0.152-0.335-0.274
		C50.77,17.461,51.075,17.095,51.42,16.628z M50.963,12.389h1.372v-0.58h-1.555v-0.305h1.555v-0.579h0.396v0.579h1.189v0.305h-1.189
		v0.58h1.098v0.274h-1.098v0.609h1.22v0.306h-1.22v0.457h-0.396v-0.457h-1.738v-0.306h1.738v-0.609h-1.372V12.389z M51.176,14.218
		h5.642v2.074h-5.672v-0.306h5.245v-0.579H51.42v-0.305h4.971v-0.579h-5.215V14.218z M52.396,16.688h0.428v0.61
		c-0.021,0.305,0.142,0.447,0.487,0.427h1.646c0.447,0.021,0.682-0.102,0.702-0.366c0-0.041,0.01-0.08,0.03-0.121
		c0.02-0.122,0.04-0.224,0.061-0.306c0.143,0.062,0.274,0.103,0.396,0.122c-0.021,0.122-0.061,0.264-0.122,0.427
		c-0.081,0.428-0.417,0.63-1.006,0.61h-1.921c-0.488,0.02-0.723-0.234-0.702-0.763V16.688z M53.677,16.567l0.305-0.184
		c0.163,0.143,0.427,0.396,0.793,0.763l-0.305,0.213c-0.062-0.061-0.193-0.192-0.396-0.396C53.89,16.76,53.758,16.628,53.677,16.567
		z M54.348,12.389h1.128v-0.58h-1.22v-0.305h1.22v-0.579h0.396v0.579h1.556v0.305h-1.556v0.58h1.372v0.274h-1.372v0.609h1.678v0.306
		h-1.678v0.457h-0.396v-0.457h-1.22v-0.306h1.22v-0.609h-1.128V12.389z M56.513,16.75l0.335-0.183
		c0.203,0.264,0.508,0.63,0.915,1.098l-0.335,0.244C57.184,17.583,56.879,17.197,56.513,16.75z"/>
	<path fill="#F7F8F8" d="M58.343,12.053h2.896v0.396h-1.738c0,0.103,0,0.274,0,0.519c-0.021,0.305-0.03,0.549-0.03,0.731h1.434
		c0,1.099-0.031,2.186-0.092,3.264c-0.021,0.649-0.325,0.976-0.915,0.976c-0.122,0.02-0.335,0.03-0.641,0.03
		c-0.02-0.163-0.051-0.305-0.091-0.427c0.061,0,0.162,0,0.305,0c0.142,0.02,0.264,0.03,0.366,0.03
		c0.386,0.021,0.589-0.203,0.609-0.671c0.041-1.139,0.062-2.073,0.062-2.806h-1.067c0,1.871-0.315,3.212-0.945,4.025
		c-0.103-0.102-0.214-0.193-0.336-0.274c0.61-0.69,0.915-2.013,0.915-3.964c0-0.163,0.01-0.406,0.03-0.732c0-0.324,0-0.559,0-0.701
		h-0.762V12.053z M59.471,11.017l0.366-0.153c0.162,0.326,0.305,0.671,0.427,1.037l-0.396,0.122
		C59.745,11.677,59.613,11.342,59.471,11.017z M61.392,13.457c-0.021-0.041-0.071-0.081-0.152-0.122
		c-0.061-0.062-0.112-0.102-0.152-0.122c0.569-0.63,1.026-1.413,1.372-2.349l0.396,0.122c-0.021,0.062-0.061,0.143-0.122,0.244
		c-0.081,0.224-0.163,0.387-0.244,0.488h2.958v0.396h-3.141C61.961,12.724,61.657,13.172,61.392,13.457z M65.203,14.463l0.244,0.336
		c-0.183,0.121-0.478,0.295-0.884,0.518c-0.225,0.122-0.396,0.225-0.519,0.306c0.244,0.712,0.772,1.321,1.586,1.829
		c-0.021,0.041-0.072,0.102-0.153,0.183c-0.061,0.081-0.111,0.143-0.152,0.184c-1.261-0.854-1.972-2.236-2.134-4.147
		c-0.326,0.062-0.651,0.103-0.977,0.122v3.629c0.224-0.082,0.58-0.214,1.067-0.396c0.122-0.061,0.224-0.111,0.305-0.152
		c0,0.041,0,0.102,0,0.183c0.021,0.103,0.031,0.184,0.031,0.244c-0.529,0.142-0.996,0.325-1.403,0.549
		c-0.061,0.021-0.163,0.071-0.305,0.152l-0.03,0.03l-0.244-0.335c0.142-0.122,0.203-0.285,0.183-0.488v-3.75
		c1.099-0.102,2.176-0.274,3.232-0.519l0.152,0.396c-0.487,0.081-1.036,0.173-1.646,0.274c0.081,0.63,0.203,1.179,0.366,1.646
		C64.431,14.951,64.858,14.686,65.203,14.463z"/>
	<path fill="#F7F8F8" d="M67.003,14.188c-0.021-0.02-0.062-0.061-0.122-0.122c-0.366-0.325-0.671-0.579-0.915-0.763l0.274-0.274
		c0.447,0.326,0.793,0.61,1.037,0.854L67.003,14.188z M66.179,17.969c0.306-0.976,0.539-1.891,0.702-2.744
		c0.04,0.021,0.102,0.051,0.183,0.091c0.102,0.041,0.183,0.072,0.244,0.092c-0.184,0.569-0.417,1.475-0.701,2.714L66.179,17.969z
		 M67.186,12.206c-0.325-0.305-0.641-0.589-0.945-0.854l0.274-0.274c0.406,0.325,0.731,0.61,0.976,0.854L67.186,12.206z
		 M67.613,12.328h2.562v0.336h-1.556c0,0.183-0.01,0.438-0.03,0.762c0,0.265,0,0.458,0,0.58h1.403c0,0.325-0.011,0.833-0.031,1.524
		c-0.021,0.712-0.041,1.23-0.061,1.555c-0.021,0.59-0.325,0.885-0.915,0.885c-0.143,0-0.305,0-0.487,0l-0.062-0.427
		c0.183,0.02,0.336,0.03,0.457,0.03c0.407,0.021,0.61-0.152,0.61-0.519c0-0.162,0.01-0.437,0.03-0.823
		c0.041-0.895,0.062-1.524,0.062-1.891h-1.037c-0.021,1.81-0.366,3.08-1.037,3.812c-0.081-0.102-0.193-0.193-0.335-0.274
		c0.427-0.549,0.701-1.158,0.823-1.829c0.142-0.63,0.214-1.759,0.214-3.385h-0.61V12.328z M68.528,11.048l0.365-0.122
		c0.122,0.285,0.265,0.682,0.428,1.189l-0.396,0.122C68.842,11.972,68.71,11.576,68.528,11.048z M71.302,10.864l0.396,0.092
		c-0.143,0.387-0.295,0.742-0.457,1.067h2.165v0.366h-2.317c-0.244,0.468-0.499,0.884-0.763,1.25
		c-0.021-0.021-0.081-0.071-0.183-0.152c-0.062-0.041-0.112-0.071-0.152-0.092C70.54,12.684,70.977,11.841,71.302,10.864z
		 M71.729,14.645l1.007-1.006h-1.982v-0.366h2.409V13.7l-1.037,1.067v0.396h1.281v0.366h-1.281v1.738
		c0.021,0.508-0.254,0.762-0.823,0.762c-0.143,0.021-0.386,0.031-0.731,0.031c0-0.041-0.011-0.112-0.03-0.214
		c-0.021-0.102-0.041-0.173-0.062-0.214c0.062,0,0.173,0,0.336,0c0.203,0.021,0.345,0.031,0.427,0.031
		c0.346,0.02,0.508-0.143,0.487-0.488V15.53h-1.402v-0.366h1.402V14.645z"/>
	<path fill="#F7F8F8" d="M80.359,17.939c-0.163-0.225-0.335-0.438-0.519-0.641c-1.605,0.02-3.11,0.061-4.513,0.122
		c-0.041,0-0.092,0.01-0.152,0.03c-0.265,0.021-0.438,0.041-0.519,0.062l-0.244-0.458c0.264-0.162,0.488-0.355,0.671-0.579
		c0.691-0.752,1.261-1.504,1.708-2.257h-2.897v-0.427h7.288v0.427h-4.208l0.335,0.122c-0.487,0.732-1.209,1.637-2.164,2.714
		c1.666-0.04,3.13-0.091,4.391-0.152c-0.265-0.325-0.631-0.782-1.098-1.372c0.04,0.061,0,0.011-0.122-0.152l0.366-0.244
		c0.427,0.509,1.117,1.353,2.073,2.531L80.359,17.939z M74.626,11.444h5.854v0.427h-5.854V11.444z"/>
	<path fill="#F7F8F8" d="M83.561,16.109l0.335,0.274c-0.63,0.549-1.271,1.026-1.921,1.434c-0.122-0.163-0.224-0.274-0.305-0.336
		C82.26,17.157,82.89,16.699,83.561,16.109z M88.409,16.049c-0.184-0.184-0.377-0.366-0.579-0.549c-0.488,0-1.22,0.021-2.196,0.061
		v1.616c0.021,0.549-0.274,0.833-0.884,0.854c-0.163,0.021-0.458,0.031-0.885,0.031c0-0.041-0.01-0.092-0.03-0.152
		c-0.021-0.163-0.041-0.265-0.061-0.306c0.102,0.021,0.396,0.03,0.884,0.03c0.386,0.021,0.569-0.152,0.549-0.518V15.56
		c-1.036,0.041-1.769,0.071-2.195,0.092c-0.143,0-0.315,0.011-0.519,0.03c-0.061,0.021-0.112,0.03-0.152,0.03l-0.183-0.427
		c0.02,0,0.07-0.02,0.152-0.061c0.244-0.062,0.446-0.132,0.609-0.214c0.915-0.427,1.728-0.843,2.439-1.25
		c-0.691,0-1.464,0.03-2.317,0.092c-0.203,0-0.366,0.01-0.487,0.03l-0.184-0.396c0.224-0.062,0.417-0.143,0.58-0.244
		c0.609-0.305,1.331-0.763,2.164-1.372c-0.59,0.041-1.443,0.081-2.561,0.122c-0.163,0-0.274,0-0.336,0
		c0-0.041-0.011-0.111-0.03-0.214c-0.021-0.081-0.041-0.142-0.062-0.183c2.114-0.062,4.209-0.183,6.282-0.366l0.091,0.396
		c-0.69,0.062-1.778,0.133-3.263,0.214l0.306,0.243c-0.671,0.448-1.434,0.905-2.287,1.373c0.487,0,1.382-0.021,2.684-0.062
		c0.549-0.305,1.046-0.63,1.494-0.976l0.365,0.305c-1.362,0.875-2.896,1.719-4.604,2.531c1.017-0.021,2.439-0.051,4.27-0.092
		c-0.122-0.102-0.305-0.264-0.549-0.487c-0.204-0.184-0.356-0.315-0.458-0.396l0.306-0.244c0.65,0.549,1.301,1.118,1.951,1.708
		L88.409,16.049z M86.579,16.383l0.274-0.274c0.752,0.509,1.403,0.945,1.952,1.312l-0.274,0.335
		c-0.082-0.041-0.184-0.111-0.306-0.213C87.474,17.035,86.925,16.648,86.579,16.383z"/>
	<path fill="#F7F8F8" d="M89.537,17.451l-0.122-0.335c0.955-0.143,1.799-0.295,2.531-0.458c0,0.122,0,0.255,0,0.396
		c-0.103,0.021-0.274,0.051-0.519,0.092C90.615,17.248,89.985,17.349,89.537,17.451z M90.208,15.468
		c0.203-0.02,0.508-0.05,0.915-0.091c0.305-0.021,0.549-0.041,0.731-0.062c-0.041,0.082-0.061,0.204-0.061,0.366
		c-0.184,0.021-0.438,0.041-0.763,0.062c-0.65,0.061-1.088,0.111-1.312,0.152l-0.152-0.366c0.163-0.102,0.386-0.325,0.671-0.671
		c0.041-0.061,0.102-0.152,0.184-0.274c0.101-0.142,0.284-0.396,0.549-0.763c-0.407,0-0.875,0.021-1.403,0.062l-0.122-0.396
		c0.203-0.184,0.366-0.376,0.488-0.579c0.508-0.772,0.895-1.443,1.158-2.013l0.458,0.152c-0.569,0.956-1.098,1.769-1.586,2.439
		c0.102,0,0.274,0,0.519,0c0.325-0.021,0.559-0.03,0.701-0.03c0.081-0.122,0.184-0.295,0.305-0.519
		c0.081-0.122,0.143-0.214,0.184-0.274l0.396,0.152C91.357,13.914,90.737,14.799,90.208,15.468z M91.947,11.963h2.287
		c-0.062-0.244-0.193-0.569-0.396-0.977l0.396-0.122c0.102,0.204,0.243,0.519,0.427,0.945l-0.366,0.153h2.409v0.365h-2.928
		l0.396,0.184c-0.447,0.569-0.945,1.158-1.494,1.769c0.143,0,0.366-0.011,0.671-0.031c1.077-0.02,1.819-0.05,2.227-0.091
		c-0.122-0.122-0.295-0.336-0.519-0.641c-0.062-0.081-0.112-0.142-0.152-0.183l0.335-0.214c0.162,0.203,0.417,0.519,0.763,0.945
		c0.305,0.366,0.508,0.62,0.609,0.763l-0.335,0.274c-0.041-0.062-0.112-0.163-0.214-0.305c-0.102-0.122-0.183-0.214-0.244-0.274
		c-0.081,0-0.203,0-0.365,0c-0.184,0.02-0.326,0.03-0.427,0.03v2.53c-0.021,0.366,0.142,0.539,0.487,0.519h0.183
		c0.407,0.021,0.62-0.132,0.641-0.457c0.021-0.081,0.041-0.264,0.062-0.549c0.02-0.102,0.03-0.184,0.03-0.244
		c0.142,0.061,0.274,0.102,0.396,0.122c-0.021,0.244-0.051,0.519-0.092,0.823c-0.061,0.468-0.407,0.69-1.037,0.671h-0.243
		c-0.59,0.02-0.875-0.244-0.854-0.793v-2.622c-0.102,0-0.264,0.01-0.487,0.03c-0.204,0-0.356,0.011-0.458,0.03
		c0,1.037-0.132,1.779-0.396,2.227c-0.243,0.467-0.752,0.925-1.524,1.372c-0.061-0.103-0.152-0.214-0.274-0.336
		c0.772-0.406,1.25-0.812,1.434-1.22c0.244-0.386,0.355-1.067,0.335-2.043c-0.102,0.021-0.183,0.03-0.244,0.03
		c-0.284,0-0.549,0.031-0.792,0.092l-0.214-0.427c0.224-0.102,0.376-0.214,0.457-0.336c0.508-0.528,0.945-1.077,1.312-1.646h-1.799
		V11.963z"/>
</g>
</svg>
