<?xml version="1.0" encoding="utf-8"?>
<!-- Generator: Adobe Illustrator 17.0.0, SVG Export Plug-In . SVG Version: 6.00 Build 0)  -->
<!DOCTYPE svg PUBLIC "-//W3C//DTD SVG 1.1//EN" "http://www.w3.org/Graphics/SVG/1.1/DTD/svg11.dtd">
<svg version="1.1" id="图层_1" xmlns="http://www.w3.org/2000/svg" xmlns:xlink="http://www.w3.org/1999/xlink" x="0px" y="0px"
	 width="105.524px" height="18.347px" viewBox="0 0 105.524 18.347" enable-background="new 0 0 105.524 18.347"
	 xml:space="preserve">
<g>
	<path fill="#FFFFFF" d="M8.519,0.566L4.428,16.07h13.063l-1.273,2.229l-15.629-0.01L4.669,2.882L0,2.872V0.566H8.519z
		 M17.973,0.962l-6.049,5.731l-4.737,0.01l6.618-5.74H17.973z M17.549,13.899h-4.525L7.979,8.593h4.525L17.549,13.899z"/>
	<path fill="#FFFFFF" d="M19.7,0.711h17.732l-1.177,2.422H19.7V0.711z M33.487,15.81l-1.341-5.441h3.184l2.045,7.979h-3.261
		l-0.405-1.65l-0.502,1.515l-13.381-0.01V16.07l3.213-6.888H19.7V6.77h17.665l-1.138,2.412h-9.86l-2.962,6.628H33.487z"/>
</g>
<g>
	<path fill="#EFEFEF" d="M43.156,7.602V0.728h3.822v0.761h-2.292v2.291h1.531v0.77h-1.531v2.292h2.292v0.761H43.156z"/>
	<path fill="#EFEFEF" d="M48.499,7.602V0.728h3.062c0.415,0,0.772,0.151,1.072,0.454c0.299,0.302,0.449,0.662,0.449,1.077V2.67
		c0,0.342-0.116,0.671-0.349,0.985c-0.232,0.315-0.623,0.472-1.173,0.472h0.761c0.208,0,0.386,0.075,0.536,0.225
		c0.149,0.149,0.225,0.332,0.225,0.545v2.704H51.56V5.31c0-0.208-0.075-0.386-0.225-0.536c-0.15-0.149-0.332-0.225-0.545-0.225
		H50.03v3.052H48.499z M50.03,3.779h0.761c0.214,0,0.396-0.075,0.545-0.224c0.149-0.15,0.225-0.329,0.225-0.537V2.258
		c0-0.213-0.075-0.396-0.225-0.545c-0.15-0.15-0.332-0.225-0.545-0.225H50.03V3.779z"/>
	<path fill="#EFEFEF" d="M54.613,7.602V0.728h3.062c0.415,0,0.772,0.151,1.072,0.454c0.299,0.302,0.449,0.662,0.449,1.077v0.761
		c0,0.416-0.15,0.775-0.449,1.077c-0.3,0.303-0.657,0.454-1.072,0.454h-1.531v3.052H54.613z M56.143,3.779h0.761
		c0.214,0,0.396-0.075,0.545-0.224c0.149-0.15,0.225-0.329,0.225-0.537V2.258c0-0.213-0.075-0.396-0.225-0.545
		c-0.15-0.15-0.332-0.225-0.545-0.225h-0.761V3.779z"/>
</g>
<text transform="matrix(1 0 0 1 42.3946 17.2987)" fill="#F7F8F8" font-family="'FZLTXHK--GBK1-0'" font-size="7.8063">智慧旅游云系统</text>
</svg>
