<?xml version="1.0" encoding="utf-8"?>
<!-- Generator: Adobe Illustrator 17.0.0, SVG Export Plug-In . SVG Version: 6.00 Build 0)  -->
<!DOCTYPE svg PUBLIC "-//W3C//DTD SVG 1.1//EN" "http://www.w3.org/Graphics/SVG/1.1/DTD/svg11.dtd">
<svg version="1.1" xmlns="http://www.w3.org/2000/svg" xmlns:xlink="http://www.w3.org/1999/xlink" x="0px" y="0px"
	 width="242.59px" height="29px" viewBox="0 0 242.59 29" enable-background="new 0 0 242.59 29" xml:space="preserve">
<g id="图层_1">
</g>
<g id="图层_2">
	<circle fill="#FFFFFF" cx="44.09" cy="10.259" r="1.531"/>
	<text transform="matrix(1 0 0 1 42.0901 20.7501)" fill="#FFFFFF" font-family="'FZLTZHK--GBK1-0'" font-size="6">业务梳理</text>
	<circle fill="#FFFFFF" cx="110.965" cy="10.259" r="1.531"/>
	<text transform="matrix(1 0 0 1 99.4957 20.7498)"><tspan x="0" y="0" fill="#FFFFFF" font-family="'FZLTZHK--GBK1-0'" font-size="6">绘制</tspan><tspan x="-14.555" y="7.2" fill="#FFFFFF" font-family="'FZLTZHK--GBK1-0'" font-size="6">BPMN图</tspan></text>
	<circle fill="#FFFFFF" cx="133.257" cy="10.259" r="1.531"/>
	<text transform="matrix(1 0 0 1 130.9597 20.75)" fill="#FFFFFF" font-family="'FZLTZHK--GBK1-0'" font-size="6">UI设计稿</text>
	<circle fill="#FFFFFF" cx="177.84" cy="10.259" r="1.531"/>
	<text transform="matrix(1 0 0 1 176.3095 20.7502)" fill="#FFFFFF" font-family="'FZLTZHK--GBK1-0'" font-size="6">前端开发</text>
	<polygon fill="#FFFFFF" points="238.296,9.601 240.796,10.259 238.296,10.917 	"/>
	<text transform="matrix(1 0 0 1 41.0901 3.75)" fill="#FFFFFF" font-family="'FZLTZHK--GBK1-0'" font-size="4">6月</text>
	<text transform="matrix(1 0 0 1 3.0901 3.75)" fill="#FFFFFF" font-family="'FZLTZHK--GBK1-0'" font-size="4">2015年</text>
	<text transform="matrix(1 0 0 1 107.219 3.75)" fill="#FFFFFF" font-family="'FZLTZHK--GBK1-0'" font-size="4">9月</text>
	<text transform="matrix(1 0 0 1 128.2095 3.75)" fill="#FFFFFF" font-family="'FZLTZHK--GBK1-0'" font-size="4">10月</text>
	<text transform="matrix(1 0 0 1 150.5519 3.75)" fill="#FFFFFF" font-family="'FZLTZHK--GBK1-0'" font-size="4">11月</text>
	<text transform="matrix(1 0 0 1 172.3401 3.75)" fill="#FFFFFF" font-family="'FZLTZHK--GBK1-0'" font-size="4">12月</text>
	<circle fill="#FFFFFF" cx="66.382" cy="10.259" r="0.765"/>
	<circle fill="#FFFFFF" cx="88.673" cy="10.259" r="0.765"/>
	<circle fill="#FFFFFF" cx="155.548" cy="10.259" r="0.765"/>
	<text transform="matrix(1 0 0 1 63.1515 3.75)" fill="#FFFFFF" font-family="'FZLTZHK--GBK1-0'" font-size="4">7月</text>
	<text transform="matrix(1 0 0 1 85.158 3.75)" fill="#FFFFFF" font-family="'FZLTZHK--GBK1-0'" font-size="4">8月</text>
	<rect x="0" y="10.231" fill="#FFFFFF" width="238.296" height="0.283"/>
</g>
</svg>
