<?xml version="1.0" encoding="utf-8"?>
<!-- Generator: Adobe Illustrator 17.0.0, SVG Export Plug-In . SVG Version: 6.00 Build 0)  -->
<!DOCTYPE svg PUBLIC "-//W3C//DTD SVG 1.1//EN" "http://www.w3.org/Graphics/SVG/1.1/DTD/svg11.dtd">
<svg version="1.1" id="图层_1" xmlns="http://www.w3.org/2000/svg" xmlns:xlink="http://www.w3.org/1999/xlink" x="0px" y="0px"
	 width="1043.333px" height="150px" viewBox="0 0 1043.333 150" enable-background="new 0 0 1043.333 150" xml:space="preserve">
<g>
	<path fill="#FFFFFF" d="M61.343,98.091c-17.143,8.571-32.917,16.942-47.322,25.121c-2.729-4.674-5.842-8.179-9.347-10.516
		c3.505-0.776,8.179-1.944,14.021-3.505c0-20.247-1.168-32.516-3.505-36.806c3.505,1.561,7.979,2.729,13.437,3.505
		c-1.953,2.729-2.921,13.053-2.921,30.963c3.505-1.168,7.011-2.337,10.516-3.505c0-19.078,0-30.379,0-33.885
		c-0.393-5.449-0.977-9.146-1.753-11.1c-1.168,0.393-2.145,0.584-2.921,0.584c0.383,3.122,0.191,5.066-0.584,5.842
		c-2.729-1.168-5.066-3.113-7.01-5.842c-0.393-12.46-3.122-21.808-8.179-28.042c4.281,0.393,7.978,0.977,11.1,1.752
		c8.179-1.552,14.213-3.697,18.111-6.426c4.673,4.291,10.708,7.211,18.11,8.763c-4.29,2.729-7.987,7.796-11.1,15.19
		c0.384,0.393,0.776,0.785,1.168,1.168c1.944,1.953,2.921,3.313,2.921,4.089c-7.796,0.785-14.605,1.752-20.448,2.921
		c3.505,1.168,7.394,1.954,11.685,2.337c-1.168,1.954-2.146,6.819-2.921,14.605c1.552-0.383,3.697-1.168,6.426-2.337
		c2.72-0.776,4.674-1.36,5.842-1.752c2.337,2.729,3.697,4.875,4.09,6.426c-4.674,0.785-10.133,1.954-16.358,3.505
		c-0.393,5.459-0.584,12.077-0.584,19.863c2.72-0.776,6.618-2.136,11.684-4.089c1.944-0.776,3.305-1.36,4.09-1.753
		c1.168-0.383,2.136-0.191,2.921,0.584C62.895,96.54,62.511,97.316,61.343,98.091z M28.627,38.501c0,0.785,0.192,2.337,0.584,4.674
		c0.776,5.066,1.36,8.763,1.752,11.1c1.552-0.383,4.281-1.168,8.179-2.337c3.505-0.776,5.45-1.168,5.842-1.168
		c1.168-7.01,1.752-11.684,1.752-14.021c0.383-1.944-0.201-2.72-1.752-2.337C37.974,35.973,32.515,37.333,28.627,38.501z
		 M101.654,71.217c-1.168-0.776-2.538-1.753-4.09-2.921c-3.122,0.393-8.179,0.977-15.189,1.753
		c-2.729,0.393-4.674,0.584-5.842,0.584v2.921c3.113,1.561,8.179,5.066,15.19,10.516c2.72,1.954,4.674,3.505,5.842,4.674
		c9.348-8.955,14.605-16.741,15.774-23.369c3.505,3.505,8.562,6.235,15.19,8.179c-1.954,1.168-5.65,3.505-11.1,7.01
		c-7.403,5.066-13.054,8.572-16.942,10.516c7.787,6.235,13.628,10.132,17.526,11.685c9.348,4.673,18.494,9.932,27.458,15.773
		c1.552,0.785,2.337,1.561,2.337,2.337c-0.392,1.168-1.369,1.954-2.921,2.337c-8.964,0-15.391-0.191-19.279-0.584
		c-4.29,0-8.179-1.552-11.684-4.674c-1.954-1.168-6.426-5.842-13.437-14.021C88.801,91.081,80.814,83.486,76.532,81.149v38.558
		c3.113-1.944,8.371-4.865,15.774-8.763c2.337-1.552,3.889-1.944,4.674-1.168c0.383,0.393-0.393,1.753-2.337,4.09
		c-5.458,6.234-13.638,14.222-24.537,23.953c-2.337-5.066-5.258-8.571-8.763-10.516c4.281-2.721,6.426-9.731,6.426-21.032
		c2.72-45.176,1.36-72.826-4.089-82.958c2.337,0,6.81,0.977,13.437,2.921c11.292-1.552,19.078-4.281,23.369-8.179
		c4.674,4.29,11.1,7.403,19.279,9.347c-5.459,6.627-10.516,21.032-15.19,43.232C104.182,72.194,103.206,72.386,101.654,71.217z
		 M76.532,33.243V46.68c2.337-0.383,5.258-1.168,8.763-2.337c3.113-0.776,5.642-1.36,7.595-1.752
		c1.944,1.953,3.304,3.897,4.089,5.842c-5.842,1.561-12.661,2.729-20.448,3.505v13.437c1.552-0.383,3.889-0.776,7.011-1.168
		c6.226-1.168,10.899-1.944,14.021-2.337c1.168-7.394,2.529-18.695,4.09-33.884C91.521,30.322,83.151,32.075,76.532,33.243z"/>
	<path fill="#FFFFFF" d="M251.798,46.68c1.552,1.954,2.921,3.505,4.09,4.674c0.776,1.168,0.584,1.953-0.584,2.337
		c-0.785,0-1.954,0.201-3.505,0.584c-12.469,2.337-21.817,3.898-28.042,4.674v0.584c-0.392,0.393-0.584,0.785-0.584,1.168
		c-1.168,2.337-2.337,4.482-3.505,6.427c6.618-0.776,16.358-2.136,29.211-4.09c15.189-2.337,25.706-3.889,31.548-4.674
		c2.337-0.383,4.089,0.201,5.258,1.753c1.552,1.561,3.113,3.898,4.674,7.011c0.383,0.785,0.383,1.369,0,1.752h-1.753
		c-20.256,0.393-44.601,2.729-73.027,7.011c-0.393,0.393-0.785,1.168-1.168,2.337c-0.785,1.561-2.337,3.897-4.674,7.01
		c0.383,0,0.968,0.201,1.752,0.584c1.168,0,1.944,0.201,2.337,0.584c17.91-2.337,29.01-5.057,33.3-8.179
		c5.057,3.505,10.708,5.458,16.942,5.842c-3.122,5.459-4.089,18.896-2.921,40.311c0.383,13.629,0,20.448-1.168,20.448
		c-1.561,0-5.459-3.122-11.685-9.348c-8.964-0.393-20.256,0.192-33.884,1.753c0,0.776-0.201,1.944-0.584,3.505
		c0,1.944-0.201,2.921-0.584,2.921c-4.674-2.729-8.179-6.043-10.516-9.932c2.337-1.168,3.505-12.652,3.505-34.469
		c0-2.337-0.201-4.674-0.584-7.011c-6.627,10.516-13.437,19.279-20.448,26.29c-7.403,7.796-16.167,9.156-26.29,4.09
		c16.358-7.787,31.547-22.976,45.569-45.569c-1.954,0.393-4.482,0.785-7.595,1.168c-11.685,2.336-18.896,3.897-21.616,4.673
		c-2.729-2.337-5.65-4.673-8.763-7.01c-0.393-0.776-0.393-1.168,0-1.168c0-0.383,0.383-0.584,1.168-0.584
		c5.842-0.383,16.741-1.752,32.716-4.089c3.889-0.383,6.81-0.776,8.764-1.168c1.168-2.72,2.528-5.258,4.089-7.595
		c-1.561,0-3.505,0.201-5.842,0.584c-1.168,0-1.954,0-2.337,0c-1.561-0.776-3.898-2.528-7.01-5.258
		c1.168-0.383,3.304-0.776,6.426-1.168c5.057-0.776,8.955-1.552,11.684-2.337c1.168-3.113,1.944-6.034,2.337-8.763
		c-10.516,1.954-17.335,2.921-20.447,2.921c-2.337-0.383-5.066-2.337-8.179-5.842c8.179-1.168,22.392-3.889,42.648-8.179
		c8.955-1.944,15.189-3.305,18.695-4.089c1.552,0,2.921,0.201,4.089,0.584c0.776,0.785,1.552,1.753,2.337,2.921
		c0.776,0.785,1.36,1.37,1.752,1.753c1.168,1.561,0.968,2.538-0.584,2.921c-3.898,0.393-11.301,1.753-22.2,4.09
		c-6.627,1.168-11.493,1.953-14.605,2.337c3.113,1.168,6.426,1.953,9.932,2.336c-0.393,0.393-0.977,1.168-1.752,2.337
		c-0.785,0.785-1.37,1.561-1.753,2.337c2.337-0.776,5.642-1.552,9.932-2.337c4.674-1.168,7.979-1.944,9.932-2.337
		C249.844,46.096,251.013,46.297,251.798,46.68z M199.802,15.717c7.394,1.953,12.853,3.706,16.358,5.258
		c0.383,0.393,0.192,3.706-0.584,9.932c-0.393,1.954-1.561,2.337-3.505,1.168c-4.291-3.505-8.763-7.978-13.437-13.437
		c-0.785-1.168-1.168-1.944-1.168-2.337C197.849,15.525,198.634,15.333,199.802,15.717z M217.329,92.249l-2.921-2.337
		c0,3.505,0,7.211,0,11.1c2.337-0.383,6.226-1.168,11.684-2.337c5.057-1.168,8.955-1.944,11.685-2.337
		c1.552,0.393,3.113,2.538,4.674,6.427c-3.505,0.392-9.74,1.168-18.695,2.336c-4.29,0.785-7.403,1.37-9.347,1.753v9.348
		c1.944-0.384,4.865-0.968,8.763-1.753c7.787-1.168,13.236-1.944,16.358-2.337c1.552,0.785,3.113,2.921,4.674,6.426
		c-10.516,0.785-20.448,1.753-29.795,2.921v9.347c10.124-1.168,18.695-1.944,25.706-2.336c3.889-0.776,6.034-0.584,6.426,0.584
		c0.776,0.383,1.36,0.776,1.752,1.168c0-0.393,0.192-0.785,0.584-1.168v-0.584c0-16.358-0.201-29.795-0.584-40.311
		c0-1.168-0.584-1.552-1.752-1.168C237.192,88.16,227.452,89.912,217.329,92.249z M231.35,31.491l-2.337-1.753
		c8.562-9.731,12.853-17.718,12.853-23.953c5.057,3.897,10.124,6.426,15.19,7.595c-2.729,1.168-6.627,3.897-11.685,8.179
		C239.912,26.233,235.239,29.546,231.35,31.491z"/>
	<path fill="#FFFFFF" d="M352.867,50.186c3.889,1.953,8.179,3.122,12.853,3.505c-1.561,2.729-2.729,5.65-3.505,8.763
		c-1.953,14.414-5.258,26.874-9.932,37.39c1.552,0.785,3.697,2.146,6.427,4.09c1.552,1.168,2.72,1.953,3.505,2.336
		c0,5.459-0.392,9.932-1.168,13.437c-4.673-3.505-9.347-7.394-14.021-11.684c-4.674,7.011-11.1,12.469-19.279,16.358
		c-8.571,3.122-16.166,1.753-22.784-4.089c15.189-1.944,26.874-8.179,35.053-18.695c-4.29-3.889-8.179-7.595-11.684-11.1
		c0.776-5.45,1.752-10.708,2.921-15.774c-10.132,3.122-17.143,5.65-21.032,7.595c-1.168-3.889-3.313-7.394-6.426-10.516
		c5.057-0.383,13.628-1.552,25.706-3.505c1.168-0.383,2.136-0.584,2.921-0.584c0.383-2.72,0.776-7.011,1.168-12.853
		c1.168-8.955,1.944-15.774,2.337-20.448c0.776-8.955,0.383-15.774-1.168-20.448c4.281,2.729,9.731,4.482,16.358,5.258
		c-1.561,3.897-3.706,12.469-6.426,25.705c-1.954,8.964-3.505,15.975-4.674,21.032c4.674-1.168,9.147-2.136,13.437-2.921v-0.584
		C353.835,60.51,353.643,56.42,352.867,50.186z M334.757,88.744c0.776,0.393,1.752,0.977,2.921,1.753
		c0.776,0.785,3.113,2.145,7.011,4.089c4.281-7.011,7.011-15.573,8.179-25.706c-4.674,1.168-9.348,2.337-14.021,3.505
		c-0.393,1.561-0.977,3.898-1.752,7.011C335.925,83.294,335.14,86.407,334.757,88.744z M408.952,92.249
		c1.945-0.776,3.505-0.383,4.674,1.168c0.383,0.393,0.968,1.168,1.753,2.337c1.552,1.561,2.528,2.729,2.921,3.505
		c0.383,1.168-0.201,1.752-1.752,1.752c-13.246,0.785-28.042,3.122-44.4,7.011c-1.954,0.785-3.505,0.584-4.674-0.584
		c-1.954-1.944-3.706-4.089-5.258-6.426c8.179-0.776,19.079-2.72,32.716-5.842C401.156,94.002,405.83,93.034,408.952,92.249z
		 M377.404,34.996c-1.168-0.776-3.313-2.921-6.426-6.426c-0.785-1.168-1.37-1.944-1.753-2.337
		c8.562,0.785,18.887-0.584,30.963-4.089c3.113-1.168,5.642-2.529,7.595-4.089c4.673,4.29,10.123,7.01,16.358,8.179
		c-2.729,2.337-4.482,5.842-5.258,10.516c-1.954,8.964-3.505,18.111-4.674,27.458c-0.393,1.954-0.785,2.921-1.168,2.921
		c-0.785,0.392-1.753,0-2.921-1.168c-3.897-3.889-6.426-6.81-7.595-8.764c0.383-0.383,0.776-1.168,1.168-2.336
		c1.168-1.552,1.944-3.113,2.337-4.674c0.383-2.337,0.968-6.226,1.753-11.685c0.383-2.72,0.776-4.865,1.168-6.426
		c0-3.505-0.584-4.865-1.752-4.089C397.46,30.322,387.527,32.659,377.404,34.996z M370.978,75.891
		c3.889-3.113,6.426-9.348,7.595-18.695c0.776-6.618,0.191-12.652-1.753-18.11c4.674,2.729,9.147,4.29,13.437,4.674
		c-1.168,1.561-2.145,5.066-2.921,10.516c-0.393,1.168-0.584,1.954-0.584,2.337c-0.392,1.561-0.785,3.706-1.168,6.426
		c-1.168,5.459-1.953,9.74-2.336,12.853c2.72-0.383,6.81-1.168,12.269-2.337c6.225-1.552,10.516-2.529,12.853-2.921
		c5.842-1.552,9.731-3.113,11.685-4.673c5.842,6.234,12.853,9.932,21.032,11.1c-4.291,3.897-6.819,8.571-7.595,14.021
		c-0.785,6.627-1.953,15.189-3.505,25.706c-1.561,15.573-2.921,22.785-4.09,21.616c-5.066-0.785-13.245-6.427-24.537-16.942
		c-1.168-0.776-1.561-1.552-1.168-2.337c0-0.383,0.776-0.584,2.337-0.584c10.899,2.337,16.358,1.561,16.358-2.336
		c1.168-5.45,2.72-15.573,4.673-30.379c0.384-3.113,0.584-5.258,0.584-6.426c0-1.944-0.201-2.921-0.584-2.921
		c-0.785-0.383-2.145-0.383-4.089,0c-22.2,3.898-37.782,7.796-46.737,11.685C373.114,85.44,372.53,81.35,370.978,75.891z"/>
	<path fill="#FFFFFF" d="M502.426,50.186c3.889,1.953,8.179,3.122,12.853,3.505c-1.561,2.729-2.729,5.65-3.505,8.763
		c-1.953,14.414-5.258,26.874-9.932,37.39c1.552,0.785,3.697,2.146,6.427,4.09c1.552,1.168,2.72,1.953,3.505,2.336
		c0,5.459-0.392,9.932-1.168,13.437c-4.673-3.505-9.347-7.394-14.021-11.684c-4.674,7.011-11.1,12.469-19.279,16.358
		c-8.571,3.122-16.166,1.753-22.784-4.089c15.189-1.944,26.874-8.179,35.053-18.695c-4.29-3.889-8.179-7.595-11.684-11.1
		c0.776-5.45,1.752-10.708,2.921-15.774c-10.132,3.122-17.143,5.65-21.032,7.595c-1.168-3.889-3.313-7.394-6.426-10.516
		c5.057-0.383,13.628-1.552,25.706-3.505c1.168-0.383,2.136-0.584,2.921-0.584c0.383-2.72,0.776-7.011,1.168-12.853
		c1.168-8.955,1.944-15.774,2.337-20.448c0.776-8.955,0.383-15.774-1.168-20.448c4.281,2.729,9.731,4.482,16.358,5.258
		c-1.561,3.897-3.706,12.469-6.426,25.705c-1.954,8.964-3.505,15.975-4.674,21.032c4.674-1.168,9.147-2.136,13.437-2.921v-0.584
		C503.394,60.51,503.202,56.42,502.426,50.186z M484.316,88.744c0.776,0.393,1.752,0.977,2.921,1.753
		c0.776,0.785,3.113,2.145,7.011,4.089c4.281-7.011,7.011-15.573,8.179-25.706c-4.674,1.168-9.348,2.337-14.021,3.505
		c-0.393,1.561-0.977,3.898-1.752,7.011C485.484,83.294,484.699,86.407,484.316,88.744z M558.511,92.249
		c1.944-0.776,3.505-0.383,4.674,1.168c0.383,0.393,0.967,1.168,1.752,2.337c1.552,1.561,2.529,2.729,2.922,3.505
		c0.383,1.168-0.201,1.752-1.753,1.752c-13.245,0.785-28.043,3.122-44.4,7.011c-1.954,0.785-3.505,0.584-4.674-0.584
		c-1.954-1.944-3.706-4.089-5.258-6.426c8.179-0.776,19.079-2.72,32.716-5.842C550.716,94.002,555.389,93.034,558.511,92.249z
		 M526.964,34.996c-1.169-0.776-3.313-2.921-6.426-6.426c-0.785-1.168-1.37-1.944-1.753-2.337
		c8.562,0.785,18.886-0.584,30.963-4.089c3.113-1.168,5.642-2.529,7.595-4.089c4.674,4.29,10.124,7.01,16.358,8.179
		c-2.729,2.337-4.482,5.842-5.258,10.516c-1.954,8.964-3.506,18.111-4.674,27.458c-0.393,1.954-0.785,2.921-1.169,2.921
		c-0.784,0.392-1.752,0-2.921-1.168c-3.897-3.889-6.426-6.81-7.595-8.764c0.384-0.383,0.776-1.168,1.169-2.336
		c1.168-1.552,1.944-3.113,2.337-4.674c0.383-2.337,0.967-6.226,1.752-11.685c0.384-2.72,0.776-4.865,1.169-6.426
		c0-3.505-0.585-4.865-1.753-4.089C547.018,30.322,537.087,32.659,526.964,34.996z M520.537,75.891
		c3.889-3.113,6.426-9.348,7.594-18.695c0.776-6.618,0.192-12.652-1.752-18.11c4.674,2.729,9.146,4.29,13.437,4.674
		c-1.168,1.561-2.146,5.066-2.921,10.516c-0.393,1.168-0.584,1.954-0.584,2.337c-0.393,1.561-0.785,3.706-1.169,6.426
		c-1.168,5.459-1.953,9.74-2.337,12.853c2.721-0.383,6.81-1.168,12.269-2.337c6.226-1.552,10.517-2.529,12.853-2.921
		c5.843-1.552,9.731-3.113,11.685-4.673c5.843,6.234,12.853,9.932,21.032,11.1c-4.29,3.897-6.819,8.571-7.595,14.021
		c-0.785,6.627-1.954,15.189-3.506,25.706c-1.561,15.573-2.921,22.785-4.089,21.616c-5.066-0.785-13.246-6.427-24.537-16.942
		c-1.169-0.776-1.562-1.552-1.169-2.337c0-0.383,0.776-0.584,2.337-0.584c10.899,2.337,16.358,1.561,16.358-2.336
		c1.168-5.45,2.72-15.573,4.674-30.379c0.383-3.113,0.584-5.258,0.584-6.426c0-1.944-0.201-2.921-0.584-2.921
		c-0.785-0.383-2.146-0.383-4.09,0c-22.2,3.898-37.782,7.796-46.737,11.685C522.673,85.44,522.089,81.35,520.537,75.891z"/>
	<path fill="#FFFFFF" d="M701.06,42.591c2.72,2.729,4.473,4.875,5.258,6.426c0.776,1.168,0.384,1.954-1.168,2.337
		c-8.965,1.168-18.111,2.729-27.459,4.673c0,7.011,0,14.222,0,21.616c22.977-3.889,39.919-6.226,50.827-7.011
		c1.944-0.383,3.697,0.201,5.258,1.753c1.552,2.729,2.921,4.875,4.09,6.426c0.775,1.561,1.168,2.538,1.168,2.921
		c-0.393,0.785-1.369,1.168-2.921,1.168c-17.919-1.168-40.895,0.393-68.938,4.674c5.45,2.729,10.123,4.674,14.021,5.842
		c-1.954,1.168-6.043,4.875-12.269,11.1c-7.796,7.795-13.638,13.054-17.526,15.774c4.281-0.776,11.684-1.753,22.2-2.921
		c9.348-1.168,15.965-1.944,19.863-2.336c-0.785-1.168-1.753-2.921-2.921-5.258c-1.562-2.337-2.729-4.089-3.506-5.258
		c-0.785-1.944-0.977-2.921-0.584-2.921c0-0.384,0.968-0.192,2.921,0.584c12.46,6.627,20.64,11.885,24.537,15.774
		c1.169,1.168,0.968,6.043-0.584,14.605c-0.393,2.72-0.977,4.281-1.753,4.674c-0.393,0.383-1.369-0.393-2.921-2.337l-0.584-1.168
		c-3.122-3.122-6.628-7.202-10.517-12.269c-29.995,5.066-51.027,10.315-63.095,15.774c0-5.066-0.785-9.731-2.337-14.021
		c14.021-6.226,25.121-18.111,33.3-35.637c-17.143,2.337-31.164,5.066-42.063,8.179c-2.337,0.393-6.043-1.944-11.1-7.011
		c-1.169-1.168-1.753-1.944-1.753-2.337c0.384-0.383,1.36-0.584,2.921-0.584c7.787,0,24.337-2.136,49.658-6.426
		c2.337-0.384,4.09-0.584,5.259-0.584c0-7.011,0-14.213,0-21.616c-2.729,0.393-6.427,0.785-11.101,1.168
		c-5.066,0.785-7.796,1.168-8.179,1.168c-2.337,0-5.65-2.136-9.932-6.426c8.179-0.776,17.718-2.337,28.626-4.674v-0.584
		c-0.393-17.526-2.145-29.403-5.258-35.637c0.384,0,0.968,0.201,1.753,0.584c5.057,0.785,10.516,1.37,16.358,1.753
		c-1.562,8.964-2.337,19.48-2.337,31.547c3.112-0.776,7.394-1.752,12.853-2.921c3.112-0.383,5.258-0.776,6.426-1.168
		C699.107,41.623,700.275,41.815,701.06,42.591z"/>
	<path fill="#FFFFFF" d="M799.209,66.544c-1.953,1.561-4.09,5.066-6.427,10.516c3.506,0,6.226-0.584,8.18-1.753
		c3.112,3.122,7.202,5.258,12.269,6.426c-2.729,2.337-5.843,12.47-9.348,30.379c-0.393,2.337-0.785,4.09-1.169,5.258
		c-1.561,10.133-3.313,14.405-5.258,12.853c-5.459-1.552-11.301-5.842-17.526-12.853c-1.168-1.552-1.561-2.528-1.168-2.921
		c0-0.776,0.775-0.968,2.337-0.584c8.562,2.729,13.044,1.561,13.437-3.505c0.384-1.552,0.968-4.473,1.753-8.763
		c1.944-8.562,3.112-14.213,3.505-16.942c0.384-2.337-0.584-3.305-2.921-2.921c-1.953,0-4.09,0-6.427,0
		c-6.627,16.751-13.245,28.244-19.863,34.469c-6.234,6.234-12.853,7.211-19.863,2.921c20.64-14.021,32.516-32.515,35.638-55.5
		c-8.572,2.337-15.582,4.673-21.032,7.01c-3.122-1.944-6.426-4.673-9.932-8.179c8.562-1.168,21.224-3.889,37.975-8.179
		c7.394-1.944,13.044-3.304,16.941-4.089c1.169,0,1.944,0.201,2.337,0.584c0.384,0.393,0.776,0.785,1.169,1.168
		c0.383,0.393,1.36,1.369,2.921,2.921c12.853-9.731,19.279-22.977,19.279-39.727c2.337,1.954,6.618,3.706,12.853,5.258
		c-2.337,1.954-4.481,5.651-6.426,11.101c-1.169,3.505-2.538,6.819-4.09,9.932c3.505-0.776,9.73-2.529,18.694-5.258
		c4.281-1.552,7.395-2.528,9.348-2.921c1.552-0.383,2.721-0.192,3.506,0.584l1.168,1.168c1.552,1.561,2.528,2.729,2.921,3.505
		c0.776,0.785,0.968,1.168,0.585,1.168c0,0.393-0.393,0.785-1.169,1.168c-1.953,0.393-4.674,0.977-8.179,1.753
		c-16.751,3.897-25.514,5.458-26.29,4.673c-1.168-0.776-1.953-1.36-2.337-1.752c-0.393,0.393-0.785,0.977-1.168,1.752
		c-0.785,1.561-1.954,3.314-3.506,5.258c-3.505,3.897-8.38,5.066-14.605,3.505c0,0.393-0.393,0.584-1.168,0.584
		c-0.393,0-1.169,0.201-2.337,0.584c-7.403,1.168-15.582,3.122-24.537,5.842C791.997,64.599,795.311,65.768,799.209,66.544z
		 M785.187,22.143c13.236,3.122,20.056,5.066,20.448,5.842c0.775,1.953,0.775,5.842,0,11.684c0,1.168-0.393,1.954-1.169,2.337
		c-0.393,0-1.168-0.383-2.337-1.168c-6.234-3.889-12.269-9.146-18.11-15.774c-0.785-1.168-1.169-1.944-1.169-2.337
		C783.234,22.344,784.019,22.143,785.187,22.143z M830.173,115.618l15.773-8.179c1.552-0.383,2.528-0.383,2.921,0
		c0.384,0.785,0,1.561-1.168,2.337c-12.47,11.685-20.841,20.448-25.122,26.29c-2.729-4.674-5.842-8.371-9.347-11.1
		c5.842-3.889,9.146-10.124,9.932-18.695c1.552-19.863,0.775-33.492-2.337-40.895c4.281,1.168,7.786,2.337,10.516,3.505
		c12.46-6.226,20.247-12.068,23.369-17.526c2.72,3.505,6.617,6.819,11.684,9.932c-3.122,0.785-7.402,2.145-12.853,4.089
		c-7.403,2.729-14.222,4.875-20.447,6.426c-0.393,1.561-0.584,3.122-0.584,4.674c5.449,4.291,10.707,8.763,15.773,13.437
		c9.348-9.348,14.213-15.965,14.605-19.863c3.505,3.898,7.786,6.819,12.853,8.763c-2.729,0.785-7.011,2.921-12.853,6.426
		c-5.459,3.505-9.549,5.842-12.269,7.011c0.775,0.785,1.753,1.752,2.921,2.921c8.179,7.011,14.021,11.1,17.526,12.269
		c8.562,3.505,15.774,7.211,21.616,11.1c1.552,1.168,2.136,2.146,1.753,2.921c-0.393,0.785-1.562,1.168-3.506,1.168
		c-12.853,0-21.816-1.36-26.874-4.09c-1.953-1.552-7.211-7.202-15.773-16.942c-7.403-8.955-12.853-15.19-16.358-18.695
		c0,2.729-0.2,7.011-0.584,12.853C830.948,105.494,830.555,112.112,830.173,115.618z"/>
	<path fill="#FFFFFF" d="M963.958,53.107c-5.066,2.729-9.155,6.426-12.269,11.1c-3.505,5.459-7.211,9.932-11.1,13.437
		c0.383,0,0.775,0.201,1.168,0.584c0.776,0.392,1.944,0.584,3.506,0.584c-0.785,4.674-1.169,11.685-1.169,21.032
		c0,26.874-0.584,39.918-1.753,39.143c-1.561,0-4.874-1.954-9.932-5.842c-1.168-1.168-1.953-1.752-2.337-1.752
		c3.506-4.674,5.258-19.863,5.258-45.569c0-1.168,0-2.136,0-2.921c-0.392,0.393-1.369,1.168-2.921,2.337
		c-1.168,1.168-2.145,2.146-2.921,2.921c-7.011,5.458-14.998,5.65-23.953,0.584c23.369-9.347,38.942-24.336,46.737-44.984
		C955.386,47.264,959.284,50.386,963.958,53.107z M961.621,21.559c-4.674,2.729-8.179,5.842-10.516,9.348
		c-5.459,7.796-11.101,14.414-16.942,19.863c-6.627,5.842-13.829,6.235-21.616,1.168c18.695-7.394,30.964-20.447,36.806-39.143
		C952.466,16.694,956.554,19.614,961.621,21.559z M1031.727,55.444c1.168,0,2.528,0.393,4.089,1.168
		c0.384,0.393,1.169,1.369,2.337,2.921c0.776,1.561,1.36,2.729,1.753,3.505c0.384,0.785,0.584,1.369,0.584,1.753
		c-0.393,0.393-0.977,0.584-1.752,0.584c-10.133,0-23.762,1.369-40.895,4.089c5.449,0.785,8.955,1.168,10.516,1.168
		c-1.168,3.122-1.753,9.932-1.753,20.448c0,13.245,0.192,22.985,0.585,29.211c0.383,12.068-0.201,18.302-1.753,18.695
		c-6.627-1.561-14.605-6.426-23.953-14.605c-1.561-1.552-2.145-2.528-1.752-2.921c0-0.776,1.168-0.968,3.505-0.584
		c9.73,1.561,14.404,1.168,14.021-1.168c0-8.562,0-18.886,0-30.963c0-7.787-0.977-14.021-2.921-18.695
		c-5.459,0.785-13.246,2.337-23.369,4.674c-1.168,0.393-2.146,0.584-2.921,0.584c-1.169,0.393-2.538,0.201-4.09-0.584
		c-0.393-0.383-1.168-1.168-2.337-2.337c-2.337-1.944-3.505-3.113-3.505-3.505c7.786-1.168,19.471-3.305,35.053-6.426
		C1010.302,58.949,1023.155,56.612,1031.727,55.444z M1016.538,26.233c1.552,1.561,3.112,3.505,4.673,5.842
		c0.384,0.393,0.585,0.785,0.585,1.168c-0.393,0.393-0.977,0.584-1.753,0.584c-2.337,0.393-6.627,1.168-12.853,2.337
		c-18.695,3.898-28.436,5.65-29.211,5.258c-0.785-0.384-1.954-1.36-3.506-2.921c-1.561-1.552-2.729-2.528-3.505-2.921
		c5.842-0.776,15.381-2.921,28.627-6.426c5.842-1.168,10.123-2.136,12.853-2.921C1014.392,25.457,1015.753,25.457,1016.538,26.233z"
		/>
</g>
<g>
</g>
<g>
</g>
<g>
</g>
<g>
</g>
<g>
</g>
<g>
</g>
</svg>
